<svg width="475" height="318" viewBox="0 0 475 318" fill="none" xmlns="http://www.w3.org/2000/svg">
<g clip-path="url(#clip0_803_45288)">
<path fill-rule="evenodd" clip-rule="evenodd" d="M186.602 64.5C186.602 68.2956 186.27 72.0133 185.633 75.6257C198.821 79.2829 209.572 88.8183 214.902 101.241C221.324 89.4412 231.061 79.244 243.671 72.1959C279.048 52.4218 323.637 64.9224 343.263 100.117C345.788 104.645 347.776 109.327 349.25 114.092C360.448 117.903 371.04 123.715 380.447 131.355C380.774 131.161 381.103 130.97 381.437 130.784C401.412 119.619 426.867 127.178 438.293 147.668C442.846 155.833 444.485 164.818 443.545 173.381C461.256 179.41 474 196.213 474 216C474 240.853 453.894 261 429.094 261C421.549 261 414.439 259.136 408.197 255.841C399.787 272.847 386.432 287.487 368.782 297.353C323.556 322.632 266.466 307.424 237.731 263.698C238.232 266.389 238.494 269.164 238.494 272C238.494 296.853 218.389 317 193.588 317C171.579 317 153.269 301.134 149.424 280.194C141.963 285.728 132.731 289 122.736 289C119.7 289 116.735 288.698 113.868 288.123C109.819 298.584 99.6782 306 87.8087 306C73.1686 306 61.1583 294.717 59.9646 280.355C56.1233 281.427 52.0746 282 47.8923 282C23.0914 282 2.98633 261.853 2.98633 237C2.98633 224.482 8.08724 213.157 16.3198 205C8.08724 196.843 2.98633 185.518 2.98633 173C2.98633 157.67 10.6363 144.13 22.3196 136.005C17.0816 131.406 12.5332 125.856 8.95073 119.432C-8.12136 88.8178 3.20598 49.9328 34.2511 32.5801C46.7927 25.5699 60.6337 23.1462 73.8029 24.7657C85.4168 10.2754 103.245 1 123.235 1C158.231 1 186.602 29.4299 186.602 64.5Z" fill="#FDFCFA"/>
<path d="M185.633 75.6257L185.14 75.5389L185.061 75.9862L185.499 76.1075L185.633 75.6257ZM214.902 101.241L214.443 101.438L214.849 102.385L215.341 101.48L214.902 101.241ZM243.671 72.1959L243.915 72.6323L243.915 72.6323L243.671 72.1959ZM343.263 100.117L343.7 99.8732L343.7 99.8732L343.263 100.117ZM349.25 114.092L348.772 114.24L348.848 114.484L349.089 114.566L349.25 114.092ZM380.447 131.355L380.132 131.743L380.403 131.964L380.703 131.785L380.447 131.355ZM381.437 130.784L381.681 131.221L381.681 131.221L381.437 130.784ZM438.293 147.668L437.857 147.912L437.857 147.912L438.293 147.668ZM443.545 173.381L443.048 173.326L443.004 173.725L443.384 173.854L443.545 173.381ZM408.197 255.841L408.431 255.399L407.977 255.16L407.749 255.62L408.197 255.841ZM368.782 297.353L369.026 297.789L369.026 297.789L368.782 297.353ZM237.731 263.698L238.149 263.423L237.239 263.789L237.731 263.698ZM149.424 280.194L149.916 280.104L149.771 279.314L149.126 279.792L149.424 280.194ZM113.868 288.123L113.967 287.633L113.554 287.55L113.402 287.942L113.868 288.123ZM59.9646 280.355L60.4629 280.314L60.4128 279.711L59.8303 279.874L59.9646 280.355ZM16.3198 205L16.6718 205.355L17.0302 205L16.6718 204.645L16.3198 205ZM22.3196 136.005L22.6051 136.415L23.1296 136.05L22.6495 135.629L22.3196 136.005ZM8.95073 119.432L8.51404 119.676L8.51404 119.676L8.95073 119.432ZM34.2511 32.5801L34.495 33.0165L34.495 33.0165L34.2511 32.5801ZM73.8029 24.7657L73.7419 25.262L74.0187 25.296L74.1931 25.0784L73.8029 24.7657ZM186.125 75.7126C186.767 72.0716 187.102 68.3248 187.102 64.5H186.102C186.102 68.2663 185.772 71.955 185.14 75.5389L186.125 75.7126ZM215.362 101.044C209.973 88.4835 199.103 78.8421 185.766 75.1439L185.499 76.1075C198.539 79.7236 209.172 89.153 214.443 101.438L215.362 101.044ZM243.427 71.7594C230.733 78.8549 220.929 89.1216 214.463 101.002L215.341 101.48C221.719 89.7608 231.39 79.6331 243.915 72.6323L243.427 71.7594ZM343.7 99.8732C323.937 64.4352 279.043 51.8518 243.427 71.7594L243.915 72.6323C279.053 52.9918 323.336 65.4096 342.826 100.36L343.7 99.8732ZM349.728 113.945C348.244 109.147 346.241 104.432 343.7 99.8732L342.826 100.36C345.334 104.857 347.309 109.508 348.772 114.24L349.728 113.945ZM380.763 130.967C371.309 123.289 360.665 117.449 349.411 113.619L349.089 114.566C360.232 118.358 370.771 124.14 380.132 131.743L380.763 130.967ZM381.193 130.348C380.855 130.536 380.522 130.729 380.191 130.926L380.703 131.785C381.026 131.593 381.351 131.405 381.681 131.221L381.193 130.348ZM438.73 147.425C427.175 126.704 401.419 119.042 381.193 130.348L381.681 131.221C401.404 120.196 426.559 127.653 437.857 147.912L438.73 147.425ZM444.042 173.435C444.993 164.772 443.335 155.682 438.73 147.425L437.857 147.912C442.358 155.983 443.977 164.865 443.048 173.326L444.042 173.435ZM443.384 173.854C460.898 179.816 473.5 196.433 473.5 216H474.5C474.5 195.994 461.614 179.003 443.706 172.908L443.384 173.854ZM473.5 216C473.5 240.578 453.617 260.5 429.094 260.5V261.5C454.172 261.5 474.5 241.128 474.5 216H473.5ZM429.094 260.5C421.632 260.5 414.602 258.656 408.431 255.399L407.964 256.284C414.276 259.615 421.466 261.5 429.094 261.5V260.5ZM369.026 297.789C386.768 287.872 400.192 273.155 408.645 256.063L407.749 255.62C399.381 272.538 386.096 287.102 368.538 296.916L369.026 297.789ZM237.313 263.972C266.185 307.907 323.559 323.203 369.026 297.789L368.538 296.916C323.552 322.061 266.747 306.941 238.149 263.423L237.313 263.972ZM238.994 272C238.994 269.133 238.729 266.327 238.223 263.606L237.239 263.789C237.735 266.45 237.994 269.195 237.994 272H238.994ZM193.588 317.5C218.666 317.5 238.994 297.128 238.994 272H237.994C237.994 296.578 218.111 316.5 193.588 316.5V317.5ZM148.933 280.284C152.82 301.457 171.333 317.5 193.588 317.5V316.5C171.826 316.5 153.718 300.812 149.916 280.104L148.933 280.284ZM122.736 289.5C132.842 289.5 142.178 286.191 149.722 280.596L149.126 279.792C141.749 285.265 132.62 288.5 122.736 288.5V289.5ZM113.77 288.613C116.669 289.195 119.667 289.5 122.736 289.5V288.5C119.734 288.5 116.801 288.201 113.967 287.633L113.77 288.613ZM87.8087 306.5C99.892 306.5 110.213 298.95 114.335 288.303L113.402 287.942C109.425 298.217 99.4644 305.5 87.8087 305.5V306.5ZM59.4664 280.397C60.6813 295.015 72.9055 306.5 87.8087 306.5V305.5C73.4317 305.5 61.6352 294.419 60.4629 280.314L59.4664 280.397ZM47.8923 282.5C52.1205 282.5 56.2144 281.921 60.099 280.837L59.8303 279.874C56.0323 280.933 52.0287 281.5 47.8923 281.5V282.5ZM2.48633 237C2.48633 262.128 22.8143 282.5 47.8923 282.5V281.5C23.3686 281.5 3.48633 261.578 3.48633 237H2.48633ZM15.9679 204.645C7.64432 212.892 2.48633 224.343 2.48633 237H3.48633C3.48633 224.62 8.53015 213.422 16.6718 205.355L15.9679 204.645ZM2.48633 173C2.48633 185.657 7.64432 197.108 15.9679 205.355L16.6718 204.645C8.53015 196.578 3.48633 185.38 3.48633 173H2.48633ZM22.0342 135.594C10.222 143.809 2.48633 157.499 2.48633 173H3.48633C3.48633 157.84 11.0507 144.451 22.6051 136.415L22.0342 135.594ZM8.51404 119.676C12.1247 126.15 16.7095 131.745 21.9898 136.38L22.6495 135.629C17.4537 131.067 12.9417 125.562 9.38742 119.189L8.51404 119.676ZM34.0071 32.1436C2.72715 49.6277 -8.69577 88.8143 8.51404 119.676L9.38742 119.189C-7.54695 88.8212 3.68482 50.238 34.495 33.0165L34.0071 32.1436ZM73.864 24.2695C60.5922 22.6373 46.644 25.0802 34.0071 32.1436L34.495 33.0165C46.9414 26.0596 60.6751 23.655 73.7419 25.262L73.864 24.2695ZM123.235 0.5C103.086 0.5 85.1174 9.84961 73.4128 24.453L74.1931 25.0784C85.7163 10.7013 103.403 1.5 123.235 1.5V0.5ZM187.102 64.5C187.102 29.1548 158.509 0.5 123.235 0.5V1.5C157.954 1.5 186.102 29.7051 186.102 64.5H187.102Z" fill="#0C0B0B"/>
</g>
<defs>
<clipPath id="clip0_803_45288">
<rect width="475" height="318" fill="white"/>
</clipPath>
</defs>
</svg>
