<svg width="371" height="172" viewBox="0 0 371 172" fill="none" xmlns="http://www.w3.org/2000/svg">
<g clip-path="url(#clip0_803_45305)">
<path fill-rule="evenodd" clip-rule="evenodd" d="M281.897 33.8003C276.778 30.1151 270.507 27.9274 263.727 27.8796C241.982 4.72942 207.969 -5.25106 175.496 5.04248C152.273 12.4034 134.375 28.6938 124.434 48.8807C123.958 48.8665 123.48 48.8593 123 48.8593C107.449 48.8593 93.662 56.4038 85.1069 68.0288C82.3712 67.2542 79.4841 66.8397 76.5 66.8397C62.8666 66.8397 51.256 75.4918 46.8706 87.5991C40.1597 89.8138 34.3559 93.9763 30.1519 99.4047C27.6454 98.3742 24.8909 97.8046 22 97.8046C10.402 97.8046 1 106.973 1 118.283C1 129.593 10.402 138.761 22 138.761C24.0599 138.761 26.0506 138.472 27.9316 137.933C34.0413 148.004 45.2208 154.747 58 154.747C73.6892 154.747 86.9673 144.583 91.4126 130.576C92.9453 131.967 94.5704 133.257 96.2775 134.438C98.6629 139.922 104.133 143.756 110.5 143.756C112.789 143.756 114.963 143.26 116.918 142.371C117.343 142.425 117.769 142.475 118.197 142.518C121.217 151.372 129.614 157.741 139.5 157.741C143.566 157.741 147.38 156.664 150.672 154.779C171.846 170.082 199.839 175.491 226.773 166.954C249.766 159.665 267.54 143.622 277.538 123.71C285.753 131.002 297.409 134.23 308.987 131.323C327.466 126.684 338.747 108.173 334.183 89.9779C333.833 88.5849 333.401 87.2342 332.893 85.9294C336.731 83.2066 340.004 79.7817 342.487 75.8236C344.537 76.4754 346.726 76.8277 349 76.8277C360.598 76.8277 370 67.6592 370 56.3494C370 45.0395 360.598 35.871 349 35.871C346.126 35.871 343.387 36.4339 340.893 37.4529C334.915 29.2949 325.427 23.4837 314.252 22.193C301.573 20.7286 289.681 25.4257 281.897 33.8003Z" fill="#FDFCFA"/>
<path d="M263.727 27.8796L263.363 28.2219L263.509 28.3781L263.724 28.3796L263.727 27.8796ZM281.897 33.8003L281.605 34.2061L281.963 34.4638L282.263 34.1407L281.897 33.8003ZM175.496 5.04248L175.344 4.56585L175.344 4.56585L175.496 5.04248ZM124.434 48.8807L124.419 49.3805L124.741 49.3901L124.883 49.1016L124.434 48.8807ZM85.1069 68.0288L84.9707 68.5098L85.3042 68.6043L85.5096 68.3251L85.1069 68.0288ZM46.8706 87.5991L47.0273 88.0739L47.258 87.9978L47.3407 87.7694L46.8706 87.5991ZM30.1519 99.4047L29.9618 99.8672L30.314 100.012L30.5472 99.7109L30.1519 99.4047ZM27.9316 137.933L28.3591 137.674L28.161 137.347L27.7938 137.452L27.9316 137.933ZM91.4126 130.576L91.7485 130.206L91.1716 129.682L90.936 130.425L91.4126 130.576ZM96.2775 134.438L96.736 134.239L96.6792 134.108L96.562 134.027L96.2775 134.438ZM116.918 142.371L116.982 141.875L116.841 141.856L116.711 141.915L116.918 142.371ZM118.197 142.518L118.67 142.356L118.567 142.053L118.248 142.02L118.197 142.518ZM150.672 154.779L150.965 154.374L150.704 154.185L150.424 154.345L150.672 154.779ZM226.773 166.954L226.622 166.477L226.622 166.477L226.773 166.954ZM277.538 123.71L277.87 123.336L277.383 122.904L277.091 123.486L277.538 123.71ZM308.987 131.323L309.108 131.808L309.108 131.808L308.987 131.323ZM334.183 89.9779L334.668 89.8563L334.668 89.8563L334.183 89.9779ZM332.893 85.9294L332.603 85.5216L332.285 85.7474L332.427 86.111L332.893 85.9294ZM342.487 75.8236L342.638 75.3471L342.269 75.2298L342.063 75.5579L342.487 75.8236ZM340.893 37.4529L340.489 37.7484L340.72 38.0634L341.082 37.9158L340.893 37.4529ZM314.252 22.193L314.194 22.6897L314.194 22.6897L314.252 22.193ZM263.724 28.3796C270.397 28.4267 276.568 30.5795 281.605 34.2061L282.189 33.3945C276.989 29.6508 270.618 27.4282 263.731 27.3796L263.724 28.3796ZM175.647 5.51911C207.932 -4.71455 241.746 5.20767 263.363 28.2219L264.092 27.5373C242.219 4.25117 208.007 -5.78757 175.344 4.56585L175.647 5.51911ZM124.883 49.1016C134.766 29.0323 152.559 12.8374 175.647 5.51911L175.344 4.56585C151.988 11.9695 133.985 28.3553 123.986 48.6598L124.883 49.1016ZM123 49.3593C123.475 49.3593 123.948 49.3664 124.419 49.3805L124.449 48.3809C123.968 48.3665 123.485 48.3593 123 48.3593V49.3593ZM85.5096 68.3251C93.9745 56.8228 107.615 49.3593 123 49.3593V48.3593C107.283 48.3593 93.3496 55.9849 84.7042 67.7324L85.5096 68.3251ZM76.5 67.3397C79.4376 67.3397 82.2789 67.7478 84.9707 68.5098L85.2431 67.5477C82.4636 66.7607 79.5306 66.3397 76.5 66.3397V67.3397ZM47.3407 87.7694C51.6567 75.8539 63.0834 67.3397 76.5 67.3397V66.3397C62.6497 66.3397 50.8554 75.1296 46.4005 87.4288L47.3407 87.7694ZM30.5472 99.7109C34.6909 94.3604 40.4119 90.2571 47.0273 88.0739L46.7139 87.1243C39.9075 89.3705 34.021 93.5922 29.7566 99.0986L30.5472 99.7109ZM22 98.3046C24.8248 98.3046 27.5148 98.8611 29.9618 99.8672L30.342 98.9423C27.7761 97.8873 24.9571 97.3046 22 97.3046V98.3046ZM1.5 118.283C1.5 107.261 10.6662 98.3046 22 98.3046V97.3046C10.1378 97.3046 0.5 106.685 0.5 118.283H1.5ZM22 138.261C10.6662 138.261 1.5 129.305 1.5 118.283H0.5C0.5 129.881 10.1378 139.261 22 139.261V138.261ZM27.7938 137.452C25.9572 137.979 24.0129 138.261 22 138.261V139.261C24.1069 139.261 26.1439 138.965 28.0693 138.414L27.7938 137.452ZM58 154.247C45.4003 154.247 34.3806 147.599 28.3591 137.674L27.5041 138.192C33.702 148.408 45.0414 155.247 58 155.247V154.247ZM90.936 130.425C86.5561 144.225 73.4694 154.247 58 154.247V155.247C73.909 155.247 87.3786 144.94 91.8891 130.727L90.936 130.425ZM96.562 134.027C94.8729 132.859 93.2651 131.582 91.7485 130.206L91.0766 130.946C92.6256 132.352 94.2679 133.656 95.9931 134.849L96.562 134.027ZM110.5 143.256C104.339 143.256 99.0448 139.546 96.736 134.239L95.819 134.638C98.2811 140.297 103.927 144.256 110.5 144.256V143.256ZM116.711 141.915C114.819 142.776 112.716 143.256 110.5 143.256V144.256C112.862 144.256 115.106 143.745 117.125 142.826L116.711 141.915ZM118.248 142.02C117.824 141.978 117.402 141.929 116.982 141.875L116.854 142.866C117.283 142.922 117.714 142.971 118.147 143.015L118.248 142.02ZM139.5 157.241C129.834 157.241 121.623 151.014 118.67 142.356L117.724 142.679C120.811 151.73 129.394 158.241 139.5 158.241V157.241ZM150.424 154.345C147.206 156.188 143.477 157.241 139.5 157.241V158.241C143.656 158.241 147.555 157.14 150.921 155.213L150.424 154.345ZM226.622 166.477C199.844 174.965 172.015 169.587 150.965 154.374L150.379 155.185C171.677 170.576 199.833 176.017 226.924 167.43L226.622 166.477ZM277.091 123.486C267.151 143.282 249.482 159.231 226.622 166.477L226.924 167.43C250.051 160.099 267.929 143.962 277.985 123.935L277.091 123.486ZM308.865 130.839C297.452 133.704 285.964 130.521 277.87 123.336L277.206 124.084C285.541 131.482 297.366 134.756 309.108 131.808L308.865 130.839ZM333.698 90.0995C338.193 108.02 327.083 126.265 308.865 130.839L309.108 131.808C327.848 127.104 339.3 108.327 334.668 89.8563L333.698 90.0995ZM332.427 86.111C332.928 87.3962 333.353 88.727 333.698 90.0996L334.668 89.8563C334.313 88.4429 333.875 87.0721 333.359 85.7479L332.427 86.111ZM342.063 75.5579C339.617 79.4584 336.39 82.8356 332.603 85.5216L333.182 86.3372C337.072 83.5776 340.391 80.105 342.91 76.0893L342.063 75.5579ZM349 76.3277C346.778 76.3277 344.64 75.9834 342.638 75.3471L342.335 76.3001C344.434 76.9673 346.674 77.3277 349 77.3277V76.3277ZM369.5 56.3494C369.5 67.3713 360.334 76.3277 349 76.3277V77.3277C360.862 77.3277 370.5 67.9472 370.5 56.3494H369.5ZM349 36.371C360.334 36.371 369.5 45.3274 369.5 56.3494H370.5C370.5 44.7515 360.862 35.371 349 35.371V36.371ZM341.082 37.9158C343.517 36.921 346.192 36.371 349 36.371V35.371C346.06 35.371 343.257 35.9469 340.704 36.99L341.082 37.9158ZM314.194 22.6897C325.23 23.9643 334.593 29.7019 340.489 37.7484L341.296 37.1574C335.237 28.8878 325.623 23.0031 314.309 21.6963L314.194 22.6897ZM282.263 34.1407C289.939 25.8828 301.673 21.2435 314.194 22.6897L314.309 21.6963C301.472 20.2136 289.424 24.9685 281.531 33.4599L282.263 34.1407Z" fill="#0C0B0B"/>
</g>
<defs>
<clipPath id="clip0_803_45305">
<rect width="371" height="172" fill="white"/>
</clipPath>
</defs>
</svg>
