<svg width="679" height="420" viewBox="0 0 679 420" fill="none" xmlns="http://www.w3.org/2000/svg">
<g clip-path="url(#clip0_803_45319)">
<path fill-rule="evenodd" clip-rule="evenodd" d="M650.904 79.9158C650.904 94.3786 647.01 107.933 640.212 119.589C677.308 155.755 689.367 212.915 666.137 262.625C661.112 273.378 654.761 283.084 647.373 291.64C669.775 320.783 670.781 361.663 647.457 390.462C620.017 424.343 569.292 428.674 534.159 400.133C510.688 381.066 500.114 352.153 503.862 324.956C502.538 324.39 501.219 323.799 499.905 323.183C484.366 315.899 471.029 305.814 460.21 293.806C447.098 319.245 420.553 336.642 389.941 336.642C363.62 336.642 340.305 323.779 325.951 304.001C311.598 323.779 288.283 336.642 261.961 336.642C246.625 336.642 232.309 332.275 220.192 324.719C209.716 335.754 194.899 342.635 178.474 342.635C164.324 342.635 151.367 337.528 141.351 329.058C129.952 339.944 114.501 346.63 97.4867 346.63C76.4802 346.63 57.8564 336.438 46.2996 320.733C42.7629 321.978 38.9581 322.656 34.995 322.656C16.2201 322.656 1 307.45 1 288.692C1 269.935 16.2201 254.729 34.995 254.729C36.8737 254.729 38.7168 254.881 40.5126 255.174C48.655 238.682 63.7599 226.236 81.9929 221.668C82.3121 201.255 98.9746 184.805 119.483 184.805C134.958 184.805 148.244 194.172 153.97 207.54C161.356 199.693 171.842 194.793 183.474 194.793C191.917 194.793 199.755 197.374 206.243 201.789C220.527 187.588 240.218 178.811 261.961 178.811C271.236 178.811 280.137 180.408 288.405 183.342C292.628 143.733 326.18 112.881 366.945 112.881C367.286 112.881 367.627 112.883 367.966 112.887C368.365 103.508 374.393 95.5834 382.761 92.4003C383.817 84.6666 386.042 76.9561 389.521 69.51C407.977 30.0183 454.75 12.9162 493.994 31.3114C497.949 33.1654 501.677 35.3093 505.164 37.7062C519.17 15.644 543.831 1 571.916 1C615.54 1 650.904 36.3318 650.904 79.9158Z" fill="#FDFCFA"/>
<path d="M640.212 119.589L639.78 119.337L639.584 119.674L639.863 119.947L640.212 119.589ZM666.137 262.625L665.684 262.413L665.684 262.413L666.137 262.625ZM647.373 291.64L646.995 291.313L646.729 291.621L646.977 291.944L647.373 291.64ZM647.457 390.462L647.069 390.147L647.069 390.147L647.457 390.462ZM534.159 400.133L533.844 400.521L533.844 400.521L534.159 400.133ZM503.862 324.956L504.358 325.024L504.41 324.646L504.059 324.496L503.862 324.956ZM499.905 323.183L500.117 322.73L500.117 322.73L499.905 323.183ZM460.21 293.806L460.581 293.472L460.097 292.934L459.765 293.577L460.21 293.806ZM325.951 304.001L326.356 303.708L325.951 303.15L325.547 303.708L325.951 304.001ZM220.192 324.719L220.457 324.294L220.111 324.078L219.83 324.374L220.192 324.719ZM141.351 329.058L141.674 328.676L141.331 328.386L141.006 328.696L141.351 329.058ZM46.2996 320.733L46.7023 320.437L46.4828 320.138L46.1335 320.261L46.2996 320.733ZM40.5126 255.174L40.4321 255.667L40.7972 255.727L40.9609 255.395L40.5126 255.174ZM81.9929 221.668L82.1145 222.153L82.4869 222.06L82.4929 221.676L81.9929 221.668ZM153.97 207.54L153.51 207.737L153.811 208.439L154.334 207.883L153.97 207.54ZM206.243 201.789L205.962 202.203L206.303 202.435L206.596 202.144L206.243 201.789ZM288.405 183.342L288.238 183.813L288.835 184.025L288.902 183.395L288.405 183.342ZM367.966 112.887L367.96 113.387L368.445 113.393L368.466 112.909L367.966 112.887ZM382.761 92.4003L382.939 92.8676L383.217 92.7621L383.257 92.4679L382.761 92.4003ZM389.521 69.51L389.974 69.7216L389.974 69.7216L389.521 69.51ZM493.994 31.3114L494.206 30.8587L494.206 30.8587L493.994 31.3114ZM505.164 37.7062L504.881 38.1182L505.308 38.412L505.586 37.9741L505.164 37.7062ZM640.644 119.84C647.486 108.11 651.404 94.4695 651.404 79.9158H650.404C650.404 94.2877 646.535 107.755 639.78 119.337L640.644 119.84ZM666.59 262.837C689.912 212.929 677.805 155.541 640.561 119.231L639.863 119.947C676.811 155.968 688.822 212.901 665.684 262.413L666.59 262.837ZM647.752 291.966C655.17 283.377 661.545 273.632 666.59 262.837L665.684 262.413C660.678 273.124 654.353 282.792 646.995 291.313L647.752 291.966ZM646.977 291.944C669.248 320.918 670.236 361.541 647.069 390.147L647.846 390.776C671.326 361.784 670.301 320.648 647.77 291.335L646.977 291.944ZM647.069 390.147C619.813 423.8 569.406 428.122 534.474 399.745L533.844 400.521C569.177 429.225 620.22 424.887 647.846 390.776L647.069 390.147ZM534.474 399.745C511.14 380.789 500.633 352.049 504.358 325.024L503.367 324.888C499.595 352.256 510.236 381.344 533.844 400.521L534.474 399.745ZM499.692 323.635C501.012 324.254 502.336 324.847 503.666 325.416L504.059 324.496C502.74 323.932 501.426 323.344 500.117 322.73L499.692 323.635ZM459.838 294.141C470.701 306.197 484.092 316.323 499.692 323.635L500.117 322.73C484.64 315.475 471.357 305.431 460.581 293.472L459.838 294.141ZM389.941 337.142C420.747 337.142 447.46 319.634 460.654 294.035L459.765 293.577C446.736 318.856 420.359 336.142 389.941 336.142V337.142ZM325.547 304.295C339.99 324.197 363.453 337.142 389.941 337.142V336.142C363.786 336.142 340.619 323.361 326.356 303.708L325.547 304.295ZM261.961 337.142C288.45 337.142 311.912 324.197 326.356 304.295L325.547 303.708C311.283 323.361 288.116 336.142 261.961 336.142V337.142ZM219.928 325.143C232.122 332.748 246.529 337.142 261.961 337.142V336.142C246.721 336.142 232.497 331.803 220.457 324.294L219.928 325.143ZM178.474 343.135C195.042 343.135 209.988 336.193 220.555 325.063L219.83 324.374C209.444 335.314 194.757 342.135 178.474 342.135V343.135ZM141.028 329.439C151.131 337.983 164.201 343.135 178.474 343.135V342.135C164.446 342.135 151.603 337.073 141.674 328.676L141.028 329.439ZM97.4867 347.13C114.635 347.13 130.208 340.391 141.697 329.419L141.006 328.696C129.696 339.497 114.367 346.13 97.4867 346.13V347.13ZM45.8968 321.029C57.5439 336.857 76.3146 347.13 97.4867 347.13V346.13C76.6458 346.13 58.1689 336.019 46.7023 320.437L45.8968 321.029ZM34.995 323.156C39.0155 323.156 42.8764 322.469 46.4656 321.205L46.1335 320.261C42.6494 321.488 38.9008 322.156 34.995 322.156V323.156ZM0.5 288.692C0.5 307.727 15.9444 323.156 34.995 323.156V322.156C16.4958 322.156 1.5 307.173 1.5 288.692H0.5ZM34.995 254.229C15.9444 254.229 0.5 269.658 0.5 288.692H1.5C1.5 270.211 16.4958 255.229 34.995 255.229V254.229ZM40.593 254.68C38.7707 254.383 36.9007 254.229 34.995 254.229V255.229C36.8466 255.229 38.6628 255.379 40.4321 255.667L40.593 254.68ZM81.8714 221.183C63.4938 225.787 48.2706 238.331 40.0642 254.952L40.9609 255.395C49.0394 239.033 64.0261 226.685 82.1145 222.153L81.8714 221.183ZM119.483 184.305C98.7015 184.305 81.8164 200.974 81.493 221.66L82.4929 221.676C82.8078 201.535 99.2477 185.305 119.483 185.305V184.305ZM154.429 207.343C148.627 193.797 135.165 184.305 119.483 184.305V185.305C134.751 185.305 147.86 194.546 153.51 207.737L154.429 207.343ZM183.474 194.293C171.699 194.293 161.082 199.254 153.606 207.197L154.334 207.883C161.629 200.132 171.986 195.293 183.474 195.293V194.293ZM206.525 201.376C199.956 196.906 192.02 194.293 183.474 194.293V195.293C191.813 195.293 199.554 197.842 205.962 202.203L206.525 201.376ZM261.961 178.311C240.081 178.311 220.264 187.144 205.891 201.435L206.596 202.144C220.789 188.032 240.355 179.311 261.961 179.311V178.311ZM288.572 182.87C280.252 179.918 271.294 178.311 261.961 178.311V179.311C271.178 179.311 280.023 180.898 288.238 183.813L288.572 182.87ZM366.945 112.381C325.922 112.381 292.157 143.429 287.908 183.289L288.902 183.395C293.098 144.038 326.438 113.381 366.945 113.381V112.381ZM367.973 112.387C367.631 112.383 367.288 112.381 366.945 112.381V113.381C367.284 113.381 367.622 113.383 367.96 113.387L367.973 112.387ZM382.583 91.933C374.034 95.1849 367.874 103.281 367.467 112.866L368.466 112.909C368.856 103.734 374.752 95.9818 382.939 92.8676L382.583 91.933ZM389.068 69.2983C385.567 76.7906 383.328 84.5496 382.266 92.3327L383.257 92.4679C384.306 84.7835 386.516 77.1217 389.974 69.7216L389.068 69.2983ZM494.206 30.8587C454.71 12.345 407.639 29.5587 389.068 69.2983L389.974 69.7216C408.314 30.4779 454.791 13.4874 493.782 31.7641L494.206 30.8587ZM505.447 37.2941C501.938 34.8818 498.186 32.7244 494.206 30.8587L493.782 31.7641C497.712 33.6065 501.416 35.7368 504.881 38.1182L505.447 37.2941ZM571.916 0.5C543.653 0.5 518.836 15.2375 504.742 37.4382L505.586 37.9741C519.504 16.0505 544.009 1.5 571.916 1.5V0.5ZM651.404 79.9158C651.404 36.0552 615.816 0.5 571.916 0.5V1.5C615.264 1.5 650.404 36.6084 650.404 79.9158H651.404Z" fill="#0C0B0B"/>
</g>
<defs>
<clipPath id="clip0_803_45319">
<rect width="679" height="420" fill="white"/>
</clipPath>
</defs>
</svg>
